<?xml version="1.0" encoding="UTF-8" standalone="no"?>
<svg
   xmlns:dc="http://purl.org/dc/elements/1.1/"
   xmlns:cc="http://creativecommons.org/ns#"
   xmlns:rdf="http://www.w3.org/1999/02/22-rdf-syntax-ns#"
   xmlns:svg="http://www.w3.org/2000/svg"
   xmlns="http://www.w3.org/2000/svg"
   xmlns:sodipodi="http://sodipodi.sourceforge.net/DTD/sodipodi-0.dtd"
   xmlns:inkscape="http://www.inkscape.org/namespaces/inkscape"
   width="32.808334mm"
   height="32.808334mm"
   viewBox="0 0 32.808334 32.808334"
   version="1.1"
   id="svg73"
   inkscape:version="1.0 (4035a4fb49, 2020-05-01)"
   sodipodi:docname="Icono Instalacion.svg">
  <defs
     id="defs67" />
  <sodipodi:namedview
     showguides="false"
     id="base"
     pagecolor="#ffffff"
     bordercolor="#666666"
     borderopacity="1.0"
     inkscape:pageopacity="0.0"
     inkscape:pageshadow="2"
     inkscape:zoom="4.3036447"
     inkscape:cx="68.956306"
     inkscape:cy="57.218948"
     inkscape:document-units="mm"
     inkscape:current-layer="layer1"
     inkscape:document-rotation="0"
     showgrid="false"
     inkscape:snap-perpendicular="false"
     inkscape:snap-tangential="false"
     inkscape:window-width="1366"
     inkscape:window-height="705"
     inkscape:window-x="-8"
     inkscape:window-y="-8"
     inkscape:window-maximized="1">
    <inkscape:grid
       type="xygrid"
       id="grid164"
       empcolor="#000000"
       empopacity="0.19215686" />
  </sodipodi:namedview>
  <metadata
     id="metadata70">
    <rdf:RDF>
      <cc:Work
         rdf:about="">
        <dc:format>image/svg+xml</dc:format>
        <dc:type
           rdf:resource="http://purl.org/dc/dcmitype/StillImage" />
        <dc:title />
      </cc:Work>
    </rdf:RDF>
  </metadata>
  <g
     inkscape:label="Capa 1"
     inkscape:groupmode="layer"
     id="layer1"
     transform="translate(-127.68884,-132.41319)">
    <rect
       style="fill:#ff9955;fill-opacity:1;fill-rule:evenodd;stroke:none;stroke-width:1.02652;paint-order:stroke fill markers"
       id="rect981"
       width="32.808334"
       height="32.808334"
       x="127.68884"
       y="132.41319"
       ry="16.404167"
       inkscape:export-filename="C:\Users\aleja\Desktop\Logo carpinteria FABRICACION.png"
       inkscape:export-xdpi="96"
       inkscape:export-ydpi="96" />
    <path
       id="path41"
       d="m 139.15862,157.05817 c -0.23777,-0.0434 -0.39093,-0.15098 -0.49115,-0.35187 l -0.0669,-0.13363 v -1.207 -1.20695 l 0.0698,-0.13544 c 0.0751,-0.14491 0.21043,-0.26683 0.35534,-0.3202 0.0629,-0.0217 0.40133,-0.0304 1.67723,-0.0347 l 1.59838,-0.008 0.4915,0.49695 c 0.49792,0.50351 0.63901,0.61897 0.86805,0.71048 0.1063,0.0434 0.15967,0.0486 0.43214,0.0486 0.27291,0 0.32583,-0.004 0.43213,-0.0486 0.23126,-0.0924 0.38702,-0.2178 0.88957,-0.71589 l 0.4958,-0.49154 1.58547,0.008 c 1.2649,0.004 1.60142,0.0125 1.66432,0.0347 0.14492,0.0534 0.28029,0.17529 0.35535,0.3202 l 0.0698,0.13544 v 1.20699 1.207 l -0.0667,0.13363 c -0.0733,0.14621 -0.21954,0.28072 -0.35794,0.32845 -0.0633,0.0216 -1.0774,0.0261 -5.01442,0.0304 -2.71418,0.001 -4.95904,-0.001 -4.98854,-0.008 z m 7.62924,-0.88857 c 0.0781,-0.0216 0.19046,-0.13406 0.22257,-0.21911 0.0125,-0.0347 0.0217,-0.10935 0.0217,-0.16877 0,-0.13627 -0.0629,-0.2534 -0.1792,-0.33366 -0.0724,-0.0498 -0.10754,-0.0594 -0.22691,-0.0594 -0.15923,0 -0.23516,0.039 -0.33973,0.17701 -0.0508,0.0663 -0.059,0.0971 -0.059,0.21998 0,0.11976 0.008,0.15706 0.059,0.23169 0.1106,0.16747 0.28029,0.21867 0.50052,0.15229 z m 1.67201,0.008 c 0.15923,-0.0434 0.27941,-0.23732 0.26336,-0.42866 -0.008,-0.12753 -0.0494,-0.19307 -0.17571,-0.29504 -0.0724,-0.0586 -0.0963,-0.0655 -0.22563,-0.0655 -0.11795,0 -0.15836,0.008 -0.22127,0.053 -0.23603,0.16184 -0.25642,0.48915 -0.0434,0.66639 0.11157,0.092 0.23473,0.11365 0.40047,0.0704 z m -4.50465,-2.09812 c -0.0669,-0.0216 -0.41262,-0.35794 -1.63732,-1.58143 -0.96323,-0.96241 -1.56433,-1.57873 -1.58351,-1.62364 -0.0443,-0.10366 -0.039,-0.21216 0.0216,-0.33539 0.0582,-0.12364 0.10158,-0.16747 0.21215,-0.2139 0.0669,-0.0261 0.21651,-0.0347 0.97015,-0.0347 h 0.8911 v -1.52407 c 0,-1.65431 -0.004,-1.60065 0.11975,-1.72317 0.13794,-0.13669 0.0985,-0.13239 1.146,-0.13239 1.04755,0 1.00806,-0.004 1.14599,0.13239 0.12364,0.1224 0.11976,0.069 0.11976,1.72317 v 1.52407 h 0.89114 c 0.75337,0 0.90332,0.004 0.9701,0.0347 0.11018,0.0459 0.15402,0.0902 0.21215,0.2139 0.0577,0.12281 0.0643,0.23169 0.0216,0.33539 -0.0173,0.0451 -0.62071,0.66105 -1.5931,1.63154 -1.34467,1.34202 -1.57423,1.56243 -1.64807,1.5823 -0.11019,0.0304 -0.15272,0.0304 -0.25642,-0.008 z"
       style="fill:#1a1a1a;fill-opacity:1;stroke-width:0.0214562" />
    <path
       sodipodi:nodetypes="cssccccsccscccccscsccccscsccsc"
       id="path866"
       d="m 137.02374,159.10822 c -0.0491,-0.0431 -0.10867,-0.13579 -0.13219,-0.20599 -0.0287,-0.0858 -0.0428,-1.49264 -0.0428,-4.29633 v -4.16865 h -1.46187 -1.46184 l -0.11411,-0.10944 c -0.0942,-0.0904 -0.11412,-0.14574 -0.11412,-0.31757 v -0.20814 l 5.10442,-5.69047 c 5.05757,-5.63825 5.10589,-5.69048 5.26522,-5.69048 0.15667,0 0.19321,0.0359 1.40745,1.3872 l 1.24661,1.38723 0.0194,-0.48782 c 0.0191,-0.47936 0.0216,-0.49009 0.14849,-0.61639 l 0.12903,-0.12853 h 1.27853 c 0.86949,0 1.31107,0.0164 1.3802,0.0518 0.2239,0.11376 0.22755,0.15437 0.22755,2.53998 v 2.19247 l 2.27754,2.53901 c 1.80325,2.0102 2.28254,2.56855 2.30147,2.68094 0.0275,0.16363 -0.0644,0.3974 -0.1844,0.46904 -0.0494,0.0294 -0.61041,0.0468 -1.52471,0.0468 h -1.44647 v 4.14221 c 0,2.83673 -0.0137,4.18622 -0.0437,4.28197 -0.0953,0.30465 0.48765,0.28194 -7.20426,0.28082 -6.53785,-9.5e-4 -5.98288,0.0956 -7.05556,-0.0794 -9e-5,-2e-5 1.3e-4,-2.2e-4 1.3e-4,-2.2e-4 z"
       style="fill:none;fill-opacity:1;stroke:#1a1a1a;stroke-width:1.695;stroke-miterlimit:4;stroke-dasharray:none;stroke-opacity:1" />
  </g>
</svg>
